<svg width="191" height="44" viewBox="0 0 191 44" fill="none" xmlns="http://www.w3.org/2000/svg">
<g filter="url(#filter0_d)">
<path d="M10.3301 1.40625L18.6973 22.2891L27.0645 1.40625H31.4414V27H28.0664V17.0332L28.3828 6.27539L19.9805 27H17.3965L9.01172 6.32812L9.3457 17.0332V27H5.9707V1.40625H10.3301ZM43.1133 22.2363L47.543 7.98047H51.0234L43.377 29.9355C42.1934 33.0996 40.3125 34.6816 37.7344 34.6816L37.1191 34.6289L35.9062 34.4004V31.7637L36.7852 31.834C37.8867 31.834 38.7422 31.6113 39.3516 31.166C39.9727 30.7207 40.4824 29.9062 40.8809 28.7227L41.6016 26.7891L34.8164 7.98047H38.3672L43.1133 22.2363ZM63.8379 16.6465H57.8262V27H54.4336V1.40625H62.9062C65.7891 1.40625 68.0039 2.0625 69.5508 3.375C71.1094 4.6875 71.8887 6.59766 71.8887 9.10547C71.8887 10.6992 71.4551 12.0879 70.5879 13.2715C69.7324 14.4551 68.5371 15.3398 67.002 15.9258L73.0137 26.7891V27H69.3926L63.8379 16.6465ZM57.8262 13.8867H63.0117C64.6875 13.8867 66.0176 13.4531 67.002 12.5859C67.998 11.7188 68.4961 10.5586 68.4961 9.10547C68.4961 7.52344 68.0215 6.31055 67.0723 5.4668C66.1348 4.62305 64.7754 4.19531 62.9941 4.18359H57.8262V13.8867ZM84.0176 27.3516C81.4395 27.3516 79.3418 26.5078 77.7246 24.8203C76.1074 23.1211 75.2988 20.8535 75.2988 18.0176V17.4199C75.2988 15.5332 75.6562 13.8516 76.3711 12.375C77.0977 10.8867 78.1055 9.72656 79.3945 8.89453C80.6953 8.05078 82.1016 7.62891 83.6133 7.62891C86.0859 7.62891 88.0078 8.44336 89.3789 10.0723C90.75 11.7012 91.4355 14.0332 91.4355 17.0684V18.4219H78.5508C78.5977 20.2969 79.1426 21.8145 80.1855 22.9746C81.2402 24.123 82.5762 24.6973 84.1934 24.6973C85.3418 24.6973 86.3145 24.4629 87.1113 23.9941C87.9082 23.5254 88.6055 22.9043 89.2031 22.1309L91.1895 23.6777C89.5957 26.127 87.2051 27.3516 84.0176 27.3516ZM83.6133 10.3008C82.3008 10.3008 81.1992 10.7812 80.3086 11.7422C79.418 12.6914 78.8672 14.0273 78.6562 15.75H88.1836V15.5039C88.0898 13.8516 87.6445 12.5742 86.8477 11.6719C86.0508 10.7578 84.9727 10.3008 83.6133 10.3008ZM102.844 24.6973C104.004 24.6973 105.018 24.3457 105.885 23.6426C106.752 22.9395 107.232 22.0605 107.326 21.0059H110.402C110.344 22.0957 109.969 23.1328 109.277 24.1172C108.586 25.1016 107.66 25.8867 106.5 26.4727C105.352 27.0586 104.133 27.3516 102.844 27.3516C100.254 27.3516 98.1914 26.4902 96.6562 24.7676C95.1328 23.0332 94.3711 20.666 94.3711 17.666V17.1211C94.3711 15.2695 94.7109 13.623 95.3906 12.1816C96.0703 10.7402 97.043 9.62109 98.3086 8.82422C99.5859 8.02734 101.092 7.62891 102.826 7.62891C104.959 7.62891 106.729 8.26758 108.135 9.54492C109.553 10.8223 110.309 12.4805 110.402 14.5195H107.326C107.232 13.2891 106.764 12.2812 105.92 11.4961C105.088 10.6992 104.057 10.3008 102.826 10.3008C101.174 10.3008 99.8906 10.8984 98.9766 12.0938C98.0742 13.2773 97.623 14.9941 97.623 17.2441V17.8594C97.623 20.0508 98.0742 21.7383 98.9766 22.9219C99.8789 24.1055 101.168 24.6973 102.844 24.6973ZM117.592 27H114.34V7.98047H117.592V27ZM114.076 2.93555C114.076 2.4082 114.234 1.96289 114.551 1.59961C114.879 1.23633 115.359 1.05469 115.992 1.05469C116.625 1.05469 117.105 1.23633 117.434 1.59961C117.762 1.96289 117.926 2.4082 117.926 2.93555C117.926 3.46289 117.762 3.90234 117.434 4.25391C117.105 4.60547 116.625 4.78125 115.992 4.78125C115.359 4.78125 114.879 4.60547 114.551 4.25391C114.234 3.90234 114.076 3.46289 114.076 2.93555ZM138.879 17.7012C138.879 20.5957 138.217 22.9277 136.893 24.6973C135.568 26.4668 133.775 27.3516 131.514 27.3516C129.205 27.3516 127.389 26.6191 126.064 25.1543V34.3125H122.812V7.98047H125.783L125.941 10.0898C127.266 8.44922 129.105 7.62891 131.461 7.62891C133.746 7.62891 135.551 8.49023 136.875 10.2129C138.211 11.9355 138.879 14.332 138.879 17.4023V17.7012ZM135.627 17.332C135.627 15.1875 135.17 13.4941 134.256 12.252C133.342 11.0098 132.088 10.3887 130.494 10.3887C128.525 10.3887 127.049 11.2617 126.064 13.0078V22.0957C127.037 23.8301 128.525 24.6973 130.529 24.6973C132.088 24.6973 133.324 24.082 134.238 22.8516C135.164 21.6094 135.627 19.7695 135.627 17.332ZM146.561 27H143.309V7.98047H146.561V27ZM143.045 2.93555C143.045 2.4082 143.203 1.96289 143.52 1.59961C143.848 1.23633 144.328 1.05469 144.961 1.05469C145.594 1.05469 146.074 1.23633 146.402 1.59961C146.73 1.96289 146.895 2.4082 146.895 2.93555C146.895 3.46289 146.73 3.90234 146.402 4.25391C146.074 4.60547 145.594 4.78125 144.961 4.78125C144.328 4.78125 143.848 4.60547 143.52 4.25391C143.203 3.90234 143.045 3.46289 143.045 2.93555ZM159.674 27.3516C157.096 27.3516 154.998 26.5078 153.381 24.8203C151.764 23.1211 150.955 20.8535 150.955 18.0176V17.4199C150.955 15.5332 151.312 13.8516 152.027 12.375C152.754 10.8867 153.762 9.72656 155.051 8.89453C156.352 8.05078 157.758 7.62891 159.27 7.62891C161.742 7.62891 163.664 8.44336 165.035 10.0723C166.406 11.7012 167.092 14.0332 167.092 17.0684V18.4219H154.207C154.254 20.2969 154.799 21.8145 155.842 22.9746C156.896 24.123 158.232 24.6973 159.85 24.6973C160.998 24.6973 161.971 24.4629 162.768 23.9941C163.564 23.5254 164.262 22.9043 164.859 22.1309L166.846 23.6777C165.252 26.127 162.861 27.3516 159.674 27.3516ZM159.27 10.3008C157.957 10.3008 156.855 10.7812 155.965 11.7422C155.074 12.6914 154.523 14.0273 154.312 15.75H163.84V15.5039C163.746 13.8516 163.301 12.5742 162.504 11.6719C161.707 10.7578 160.629 10.3008 159.27 10.3008ZM181.945 21.9551C181.945 21.0762 181.611 20.3965 180.943 19.916C180.287 19.4238 179.133 19.002 177.48 18.6504C175.84 18.2988 174.533 17.877 173.561 17.3848C172.6 16.8926 171.885 16.3066 171.416 15.627C170.959 14.9473 170.73 14.1387 170.73 13.2012C170.73 11.6426 171.387 10.3242 172.699 9.24609C174.023 8.16797 175.711 7.62891 177.762 7.62891C179.918 7.62891 181.664 8.18555 183 9.29883C184.348 10.4121 185.021 11.8359 185.021 13.5703H181.752C181.752 12.6797 181.371 11.9121 180.609 11.2676C179.859 10.623 178.91 10.3008 177.762 10.3008C176.578 10.3008 175.652 10.5586 174.984 11.0742C174.316 11.5898 173.982 12.2637 173.982 13.0957C173.982 13.8809 174.293 14.4727 174.914 14.8711C175.535 15.2695 176.654 15.6504 178.271 16.0137C179.9 16.377 181.219 16.8105 182.227 17.3145C183.234 17.8184 183.979 18.4277 184.459 19.1426C184.951 19.8457 185.197 20.707 185.197 21.7266C185.197 23.4258 184.518 24.791 183.158 25.8223C181.799 26.8418 180.035 27.3516 177.867 27.3516C176.344 27.3516 174.996 27.082 173.824 26.543C172.652 26.0039 171.732 25.2539 171.064 24.293C170.408 23.3203 170.08 22.2715 170.08 21.1465H173.332C173.391 22.2363 173.824 23.1035 174.633 23.748C175.453 24.3809 176.531 24.6973 177.867 24.6973C179.098 24.6973 180.082 24.4512 180.82 23.959C181.57 23.4551 181.945 22.7871 181.945 21.9551Z" fill="#D05757"/>
<path d="M10.3301 1.40625L11.2583 1.03432L11.0067 0.40625H10.3301V1.40625ZM18.6973 22.2891L17.769 22.661L18.6973 24.9777L19.6255 22.661L18.6973 22.2891ZM27.0645 1.40625V0.40625H26.3878L26.1362 1.03432L27.0645 1.40625ZM31.4414 1.40625H32.4414V0.40625H31.4414V1.40625ZM31.4414 27V28H32.4414V27H31.4414ZM28.0664 27H27.0664V28H28.0664V27ZM28.0664 17.0332L27.0668 17.0038L27.0664 17.0185V17.0332H28.0664ZM28.3828 6.27539L29.3824 6.30479L27.4561 5.89967L28.3828 6.27539ZM19.9805 27V28H20.6541L20.9072 27.3757L19.9805 27ZM17.3965 27L16.4698 27.3759L16.723 28H17.3965V27ZM9.01172 6.32812L9.93839 5.95226L8.01221 6.35931L9.01172 6.32812ZM9.3457 17.0332H10.3457V17.0176L10.3452 17.002L9.3457 17.0332ZM9.3457 27V28H10.3457V27H9.3457ZM5.9707 27H4.9707V28H5.9707V27ZM5.9707 1.40625V0.40625H4.9707V1.40625H5.9707ZM9.40182 1.77818L17.769 22.661L19.6255 21.9171L11.2583 1.03432L9.40182 1.77818ZM19.6255 22.661L27.9927 1.77818L26.1362 1.03432L17.769 21.9171L19.6255 22.661ZM27.0645 2.40625H31.4414V0.40625H27.0645V2.40625ZM30.4414 1.40625V27H32.4414V1.40625H30.4414ZM31.4414 26H28.0664V28H31.4414V26ZM29.0664 27V17.0332H27.0664V27H29.0664ZM29.066 17.0626L29.3824 6.30479L27.3832 6.24599L27.0668 17.0038L29.066 17.0626ZM27.4561 5.89967L19.0537 26.6243L20.9072 27.3757L29.3095 6.65111L27.4561 5.89967ZM19.9805 26H17.3965V28H19.9805V26ZM18.3232 26.6241L9.93839 5.95226L8.08505 6.70399L16.4698 27.3759L18.3232 26.6241ZM8.01221 6.35931L8.34619 17.0644L10.3452 17.002L10.0112 6.29694L8.01221 6.35931ZM8.3457 17.0332V27H10.3457V17.0332H8.3457ZM9.3457 26H5.9707V28H9.3457V26ZM6.9707 27V1.40625H4.9707V27H6.9707ZM5.9707 2.40625H10.3301V0.40625H5.9707V2.40625ZM43.1133 22.2363L42.1645 22.5522L43.1461 25.5007L44.0682 22.5331L43.1133 22.2363ZM47.543 7.98047V6.98047H46.8065L46.588 7.68374L47.543 7.98047ZM51.0234 7.98047L51.9678 8.30937L52.4306 6.98047H51.0234V7.98047ZM43.377 29.9355L44.3136 30.2859L44.3176 30.2752L44.3213 30.2644L43.377 29.9355ZM37.7344 34.6816L37.649 35.678L37.6916 35.6816H37.7344V34.6816ZM37.1191 34.6289L36.934 35.6116L36.9835 35.6209L37.0337 35.6253L37.1191 34.6289ZM35.9062 34.4004H34.9062V35.2296L35.7211 35.3831L35.9062 34.4004ZM35.9062 31.7637L35.986 30.7669L34.9062 30.6805V31.7637H35.9062ZM36.7852 31.834L36.7054 32.8308L36.7452 32.834H36.7852V31.834ZM39.3516 31.166L38.7689 30.3533L38.7615 30.3586L39.3516 31.166ZM40.8809 28.7227L39.9438 28.3734L39.9382 28.3884L39.9331 28.4036L40.8809 28.7227ZM41.6016 26.7891L42.5386 27.1383L42.6667 26.7947L42.5422 26.4497L41.6016 26.7891ZM34.8164 7.98047V6.98047H33.3926L33.8757 8.31981L34.8164 7.98047ZM38.3672 7.98047L39.316 7.66459L39.0882 6.98047H38.3672V7.98047ZM44.0682 22.5331L48.4979 8.2772L46.588 7.68374L42.1583 21.9396L44.0682 22.5331ZM47.543 8.98047H51.0234V6.98047H47.543V8.98047ZM50.0791 7.65157L42.4326 29.6066L44.3213 30.2644L51.9678 8.30937L50.0791 7.65157ZM42.4403 29.5852C41.8873 31.0636 41.2034 32.0834 40.4349 32.7298C39.6841 33.3614 38.8004 33.6816 37.7344 33.6816V35.6816C39.2464 35.6816 40.5923 35.2109 41.7223 34.2604C42.8347 33.3248 43.683 31.9715 44.3136 30.2859L42.4403 29.5852ZM37.8198 33.6853L37.2045 33.6326L37.0337 35.6253L37.649 35.678L37.8198 33.6853ZM37.3043 33.6462L36.0914 33.4177L35.7211 35.3831L36.934 35.6116L37.3043 33.6462ZM36.9062 34.4004V31.7637H34.9062V34.4004H36.9062ZM35.8265 32.7605L36.7054 32.8308L36.8649 30.8372L35.986 30.7669L35.8265 32.7605ZM36.7852 32.834C38.0055 32.834 39.0984 32.5896 39.9416 31.9734L38.7615 30.3586C38.3859 30.6331 37.768 30.834 36.7852 30.834V32.834ZM39.9343 31.9787C40.8033 31.3556 41.402 30.3089 41.8286 29.0417L39.9331 28.4036C39.5628 29.5036 39.142 30.0858 38.7689 30.3533L39.9343 31.9787ZM41.8179 29.0719L42.5386 27.1383L40.6645 26.4398L39.9438 28.3734L41.8179 29.0719ZM42.5422 26.4497L35.7571 7.64113L33.8757 8.31981L40.6609 27.1284L42.5422 26.4497ZM34.8164 8.98047H38.3672V6.98047H34.8164V8.98047ZM37.4184 8.29635L42.1645 22.5522L44.0621 21.9205L39.316 7.66459L37.4184 8.29635ZM63.8379 16.6465L64.7191 16.1737L64.4362 15.6465H63.8379V16.6465ZM57.8262 16.6465V15.6465H56.8262V16.6465H57.8262ZM57.8262 27V28H58.8262V27H57.8262ZM54.4336 27H53.4336V28H54.4336V27ZM54.4336 1.40625V0.40625H53.4336V1.40625H54.4336ZM69.5508 3.375L68.9038 4.13751L68.9066 4.13991L69.5508 3.375ZM70.5879 13.2715L69.7812 12.6805L69.7774 12.6857L70.5879 13.2715ZM67.002 15.9258L66.6454 14.9915L65.5693 15.4022L66.127 16.41L67.002 15.9258ZM73.0137 26.7891H74.0137V26.5308L73.8886 26.3049L73.0137 26.7891ZM73.0137 27V28H74.0137V27H73.0137ZM69.3926 27L68.5114 27.4728L68.7943 28H69.3926V27ZM57.8262 13.8867H56.8262V14.8867H57.8262V13.8867ZM67.002 12.5859L66.3453 11.8317L66.3409 11.8356L67.002 12.5859ZM67.0723 5.4668L66.4033 6.21011L66.4079 6.21421L67.0723 5.4668ZM62.9941 4.18359L63.0007 3.18359H62.9941V4.18359ZM57.8262 4.18359V3.18359H56.8262V4.18359H57.8262ZM63.8379 15.6465H57.8262V17.6465H63.8379V15.6465ZM56.8262 16.6465V27H58.8262V16.6465H56.8262ZM57.8262 26H54.4336V28H57.8262V26ZM55.4336 27V1.40625H53.4336V27H55.4336ZM54.4336 2.40625H62.9062V0.40625H54.4336V2.40625ZM62.9062 2.40625C65.6504 2.40625 67.6006 3.03179 68.9038 4.13751L70.1978 2.61249C68.4072 1.09321 65.9277 0.40625 62.9062 0.40625V2.40625ZM68.9066 4.13991C70.1883 5.21923 70.8887 6.81829 70.8887 9.10547H72.8887C72.8887 6.37702 72.0304 4.15577 70.1949 2.61009L68.9066 4.13991ZM70.8887 9.10547C70.8887 10.506 70.5118 11.6833 69.7812 12.6805L71.3945 13.8625C72.3983 12.4925 72.8887 10.8924 72.8887 9.10547H70.8887ZM69.7774 12.6857C69.05 13.6922 68.022 14.4661 66.6454 14.9915L67.3585 16.86C69.0522 16.2136 70.4149 15.218 71.3984 13.8573L69.7774 12.6857ZM66.127 16.41L72.1387 27.2733L73.8886 26.3049L67.8769 15.4416L66.127 16.41ZM72.0137 26.7891V27H74.0137V26.7891H72.0137ZM73.0137 26H69.3926V28H73.0137V26ZM70.2738 26.5272L64.7191 16.1737L62.9567 17.1192L68.5114 27.4728L70.2738 26.5272ZM57.8262 14.8867H63.0117V12.8867H57.8262V14.8867ZM63.0117 14.8867C64.8614 14.8867 66.4498 14.405 67.663 13.3363L66.3409 11.8356C65.5853 12.5012 64.5136 12.8867 63.0117 12.8867V14.8867ZM67.6586 13.3402C68.8963 12.2626 69.4961 10.8152 69.4961 9.10547H67.4961C67.4961 10.302 67.0998 11.1749 66.3453 11.8317L67.6586 13.3402ZM69.4961 9.10547C69.4961 7.31344 68.95 5.79795 67.7366 4.71939L66.4079 6.21421C67.093 6.82315 67.4961 7.73343 67.4961 9.10547H69.4961ZM67.7412 4.7235C66.559 3.65945 64.9264 3.19628 63.0007 3.18362L62.9876 5.18357C64.6244 5.19434 65.7106 5.58664 66.4033 6.21009L67.7412 4.7235ZM62.9941 3.18359H57.8262V5.18359H62.9941V3.18359ZM56.8262 4.18359V13.8867H58.8262V4.18359H56.8262ZM77.7246 24.8203L77.0002 25.5097L77.0026 25.5122L77.7246 24.8203ZM76.3711 12.375L75.4725 11.9363L75.471 11.9393L76.3711 12.375ZM79.3945 8.89453L79.9368 9.73472L79.9387 9.73349L79.3945 8.89453ZM91.4355 18.4219V19.4219H92.4355V18.4219H91.4355ZM78.5508 18.4219V17.4219H77.5255L77.5511 18.4469L78.5508 18.4219ZM80.1855 22.9746L79.4418 23.6432L79.449 23.651L80.1855 22.9746ZM89.2031 22.1309L89.8175 21.3419L89.0256 20.7251L88.4118 21.5194L89.2031 22.1309ZM91.1895 23.6777L92.0276 24.2231L92.5286 23.4532L91.8039 22.8888L91.1895 23.6777ZM80.3086 11.7422L81.0379 12.4264L81.042 12.422L80.3086 11.7422ZM78.6562 15.75L77.6637 15.6285L77.5263 16.75H78.6562V15.75ZM88.1836 15.75V16.75H89.1836V15.75H88.1836ZM88.1836 15.5039H89.1836V15.4756L89.182 15.4473L88.1836 15.5039ZM86.8477 11.6719L86.0939 12.329L86.0981 12.3338L86.8477 11.6719ZM84.0176 26.3516C81.681 26.3516 79.8547 25.5978 78.4466 24.1284L77.0026 25.5122C78.8289 27.4179 81.1979 28.3516 84.0176 28.3516V26.3516ZM78.449 24.1309C77.0444 22.6551 76.2988 20.6537 76.2988 18.0176H74.2988C74.2988 21.0533 75.1705 23.5871 77.0002 25.5097L78.449 24.1309ZM76.2988 18.0176V17.4199H74.2988V18.0176H76.2988ZM76.2988 17.4199C76.2988 15.6615 76.6313 14.1324 77.2712 12.8107L75.471 11.9393C74.6812 13.5707 74.2988 15.4049 74.2988 17.4199H76.2988ZM77.2697 12.8137C77.9229 11.4757 78.8131 10.4601 79.9368 9.73472L78.8522 8.05435C77.3979 8.99307 76.2724 10.2977 75.4725 11.9363L77.2697 12.8137ZM79.9387 9.73349C81.0819 8.992 82.2999 8.62891 83.6133 8.62891V6.62891C81.9032 6.62891 80.3088 7.10956 78.8503 8.05557L79.9387 9.73349ZM83.6133 8.62891C85.8438 8.62891 87.4644 9.35066 88.6139 10.7162L90.144 9.4283C88.5512 7.53606 86.328 6.62891 83.6133 6.62891V8.62891ZM88.6139 10.7162C89.7799 12.1016 90.4355 14.1702 90.4355 17.0684H92.4355C92.4355 13.8962 91.7201 11.3008 90.144 9.4283L88.6139 10.7162ZM90.4355 17.0684V18.4219H92.4355V17.0684H90.4355ZM91.4355 17.4219H78.5508V19.4219H91.4355V17.4219ZM77.5511 18.4469C77.6027 20.5097 78.2089 22.2717 79.4419 23.6432L80.9292 22.3061C80.0762 21.3572 79.5926 20.0841 79.5505 18.3969L77.5511 18.4469ZM79.449 23.651C80.7009 25.0142 82.308 25.6973 84.1934 25.6973V23.6973C82.8444 23.6973 81.7796 23.2319 80.9221 22.2982L79.449 23.651ZM84.1934 25.6973C85.4773 25.6973 86.6347 25.4347 87.6183 24.8561L86.6043 23.1322C85.9942 23.4911 85.2063 23.6973 84.1934 23.6973V25.6973ZM87.6183 24.8561C88.5313 24.3191 89.3233 23.6107 89.9944 22.7423L88.4118 21.5194C87.8876 22.1979 87.2851 22.7317 86.6043 23.1322L87.6183 24.8561ZM88.5887 22.9198L90.575 24.4667L91.8039 22.8888L89.8175 21.3419L88.5887 22.9198ZM90.3513 23.1323C88.9611 25.2687 86.9033 26.3516 84.0176 26.3516V28.3516C87.5069 28.3516 90.2303 26.9852 92.0276 24.2231L90.3513 23.1323ZM83.6133 9.30078C82.0229 9.30078 80.6554 9.89689 79.5752 11.0624L81.042 12.422C81.743 11.6656 82.5786 11.3008 83.6133 11.3008V9.30078ZM79.5793 11.0579C78.5019 12.2063 77.8919 13.7646 77.6637 15.6285L79.6488 15.8715C79.8425 14.2901 80.3341 13.1765 81.0379 12.4264L79.5793 11.0579ZM78.6562 16.75H88.1836V14.75H78.6562V16.75ZM89.1836 15.75V15.5039H87.1836V15.75H89.1836ZM89.182 15.4473C89.0802 13.6539 88.5895 12.1336 87.5972 11.0099L86.0981 12.3338C86.6995 13.0149 87.0995 14.0492 87.1852 15.5606L89.182 15.4473ZM87.6014 11.0147C86.5904 9.85502 85.2226 9.30078 83.6133 9.30078V11.3008C84.7227 11.3008 85.5112 11.6606 86.0939 12.329L87.6014 11.0147ZM107.326 21.0059V20.0059H106.411L106.33 20.9173L107.326 21.0059ZM110.402 21.0059L111.401 21.0595L111.458 20.0059H110.402V21.0059ZM106.5 26.4727L106.049 25.58L106.046 25.5819L106.5 26.4727ZM96.6562 24.7676L95.9049 25.4275L95.9097 25.4329L96.6562 24.7676ZM98.3086 8.82422L97.7793 7.97578L97.7758 7.97799L98.3086 8.82422ZM108.135 9.54492L107.462 10.2851L107.465 10.2879L108.135 9.54492ZM110.402 14.5195V15.5195H111.449L111.401 14.4736L110.402 14.5195ZM107.326 14.5195L106.329 14.5955L106.399 15.5195H107.326V14.5195ZM105.92 11.4961L105.228 12.2183L105.233 12.2233L105.239 12.2282L105.92 11.4961ZM98.9766 12.0938L98.1822 11.4863L98.1813 11.4875L98.9766 12.0938ZM102.844 25.6973C104.224 25.6973 105.462 25.2729 106.515 24.4193L105.255 22.8658C104.573 23.4185 103.784 23.6973 102.844 23.6973V25.6973ZM106.515 24.4193C107.579 23.5562 108.203 22.4345 108.322 21.0944L106.33 20.9173C106.262 21.6866 105.925 22.3228 105.255 22.8658L106.515 24.4193ZM107.326 22.0059H110.402V20.0059H107.326V22.0059ZM109.404 20.9522C109.356 21.836 109.054 22.6952 108.459 23.5424L110.096 24.692C110.883 23.5704 111.331 22.3554 111.401 21.0595L109.404 20.9522ZM108.459 23.5424C107.87 24.3816 107.075 25.0621 106.049 25.58L106.951 27.3653C108.246 26.7113 109.302 25.8216 110.096 24.692L108.459 23.5424ZM106.046 25.5819C105.038 26.096 103.975 26.3516 102.844 26.3516V28.3516C104.291 28.3516 105.665 28.0211 106.954 27.3634L106.046 25.5819ZM102.844 26.3516C100.5 26.3516 98.7238 25.5846 97.4028 24.1023L95.9097 25.4329C97.659 27.3958 100.008 28.3516 102.844 28.3516V26.3516ZM97.4076 24.1076C96.0875 22.6048 95.3711 20.4975 95.3711 17.666H93.3711C93.3711 20.8345 94.1781 23.4616 95.9049 25.4275L97.4076 24.1076ZM95.3711 17.666V17.1211H93.3711V17.666H95.3711ZM95.3711 17.1211C95.3711 15.3932 95.6877 13.8962 96.2951 12.6081L94.4861 11.7551C93.7342 13.3499 93.3711 15.1458 93.3711 17.1211H95.3711ZM96.2951 12.6081C96.899 11.3274 97.7479 10.359 98.8414 9.67045L97.7758 7.97799C96.3381 8.88322 95.2416 10.1531 94.4861 11.7551L96.2951 12.6081ZM98.8379 9.67265C99.9335 8.98915 101.25 8.62891 102.826 8.62891V6.62891C100.934 6.62891 99.2384 7.06554 97.7793 7.97578L98.8379 9.67265ZM102.826 8.62891C104.743 8.62891 106.263 9.1958 107.462 10.2851L108.807 8.8047C107.194 7.33936 105.175 6.62891 102.826 6.62891V8.62891ZM107.465 10.2879C108.67 11.373 109.321 12.7729 109.403 14.5655L111.401 14.4736C111.296 12.1881 110.436 10.2716 108.804 8.80193L107.465 10.2879ZM110.402 13.5195H107.326V15.5195H110.402V13.5195ZM108.323 14.4436C108.212 12.9818 107.643 11.7332 106.601 10.764L105.239 12.2282C105.885 12.8293 106.253 13.5963 106.329 14.5955L108.323 14.4436ZM106.612 10.7739C105.58 9.78582 104.295 9.30078 102.826 9.30078V11.3008C103.818 11.3008 104.596 11.6126 105.228 12.2183L106.612 10.7739ZM102.826 9.30078C100.898 9.30078 99.3058 10.0169 98.1822 11.4863L99.7709 12.7012C100.475 11.78 101.45 11.3008 102.826 11.3008V9.30078ZM98.1813 11.4875C97.0935 12.9143 96.623 14.8815 96.623 17.2441H98.623C98.623 15.1068 99.0549 13.6404 99.7718 12.7L98.1813 11.4875ZM96.623 17.2441V17.8594H98.623V17.2441H96.623ZM96.623 17.8594C96.623 20.1706 97.0965 22.1052 98.1813 23.5282L99.7718 22.3156C99.052 21.3714 98.623 19.931 98.623 17.8594H96.623ZM98.1813 23.5282C99.2985 24.9935 100.901 25.6973 102.844 25.6973V23.6973C101.435 23.6973 100.459 23.2174 99.7718 22.3156L98.1813 23.5282ZM117.592 27V28H118.592V27H117.592ZM114.34 27H113.34V28H114.34V27ZM114.34 7.98047V6.98047H113.34V7.98047H114.34ZM117.592 7.98047H118.592V6.98047H117.592V7.98047ZM114.551 1.59961L113.809 0.929323L113.803 0.936022L113.797 0.942829L114.551 1.59961ZM114.551 4.25391L113.807 4.92287L113.814 4.9296L113.82 4.93622L114.551 4.25391ZM117.592 26H114.34V28H117.592V26ZM115.34 27V7.98047H113.34V27H115.34ZM114.34 8.98047H117.592V6.98047H114.34V8.98047ZM116.592 7.98047V27H118.592V7.98047H116.592ZM115.076 2.93555C115.076 2.62501 115.162 2.41986 115.305 2.25639L113.797 0.942829C113.306 1.50592 113.076 2.19139 113.076 2.93555H115.076ZM115.293 2.2699C115.38 2.17393 115.554 2.05469 115.992 2.05469V0.0546875C115.164 0.0546875 114.378 0.298722 113.809 0.929323L115.293 2.2699ZM115.992 2.05469C116.43 2.05469 116.605 2.17393 116.691 2.2699L118.176 0.929323C117.606 0.298722 116.82 0.0546875 115.992 0.0546875V2.05469ZM116.691 2.2699C116.84 2.43451 116.926 2.63504 116.926 2.93555H118.926C118.926 2.18137 118.683 1.49128 118.176 0.929323L116.691 2.2699ZM116.926 2.93555C116.926 3.23622 116.84 3.42378 116.703 3.57159L118.165 4.93622C118.683 4.38091 118.926 3.68956 118.926 2.93555H116.926ZM116.703 3.57159C116.618 3.66191 116.44 3.78125 115.992 3.78125V5.78125C116.81 5.78125 117.593 5.54902 118.165 4.93622L116.703 3.57159ZM115.992 3.78125C115.545 3.78125 115.366 3.66191 115.282 3.57159L113.82 4.93622C114.392 5.54902 115.174 5.78125 115.992 5.78125V3.78125ZM115.294 3.58494C115.162 3.43854 115.076 3.24644 115.076 2.93555H113.076C113.076 3.67935 113.306 4.36615 113.807 4.92287L115.294 3.58494ZM126.064 25.1543L126.806 24.4837L125.064 22.5569V25.1543H126.064ZM126.064 34.3125V35.3125H127.064V34.3125H126.064ZM122.812 34.3125H121.812V35.3125H122.812V34.3125ZM122.812 7.98047V6.98047H121.812V7.98047H122.812ZM125.783 7.98047L126.78 7.90568L126.711 6.98047H125.783V7.98047ZM125.941 10.0898L124.944 10.1646L125.133 12.6834L126.72 10.7179L125.941 10.0898ZM136.875 10.2129L136.082 10.8223L136.085 10.8257L136.875 10.2129ZM126.064 13.0078L125.193 12.5167L125.064 12.7454V13.0078H126.064ZM126.064 22.0957H125.064V22.357L125.192 22.5848L126.064 22.0957ZM134.238 22.8516L133.436 22.254L133.436 22.2552L134.238 22.8516ZM137.879 17.7012C137.879 20.4465 137.252 22.5483 136.092 24.0981L137.693 25.2964C139.182 23.3072 139.879 20.7449 139.879 17.7012H137.879ZM136.092 24.0981C134.962 25.6085 133.469 26.3516 131.514 26.3516V28.3516C134.082 28.3516 136.175 27.3251 137.693 25.2964L136.092 24.0981ZM131.514 26.3516C129.435 26.3516 127.908 25.7028 126.806 24.4837L125.323 25.8249C126.869 27.5355 128.975 28.3516 131.514 28.3516V26.3516ZM125.064 25.1543V34.3125H127.064V25.1543H125.064ZM126.064 33.3125H122.812V35.3125H126.064V33.3125ZM123.812 34.3125V7.98047H121.812V34.3125H123.812ZM122.812 8.98047H125.783V6.98047H122.812V8.98047ZM124.786 8.05526L124.944 10.1646L126.939 10.0151L126.78 7.90568L124.786 8.05526ZM126.72 10.7179C127.83 9.34208 129.368 8.62891 131.461 8.62891V6.62891C128.843 6.62891 126.701 7.55636 125.163 9.46177L126.72 10.7179ZM131.461 8.62891C133.454 8.62891 134.958 9.36037 136.082 10.8223L137.668 9.60344C136.143 7.6201 134.038 6.62891 131.461 6.62891V8.62891ZM136.085 10.8257C137.239 12.314 137.879 14.4653 137.879 17.4023H139.879C139.879 14.1987 139.183 11.5571 137.665 9.60007L136.085 10.8257ZM137.879 17.4023V17.7012H139.879V17.4023H137.879ZM136.627 17.332C136.627 15.0555 136.143 13.1288 135.061 11.6593L133.45 12.8446C134.197 13.8595 134.627 15.3195 134.627 17.332H136.627ZM135.061 11.6593C133.951 10.1511 132.393 9.38867 130.494 9.38867V11.3887C131.782 11.3887 132.732 11.8685 133.45 12.8446L135.061 11.6593ZM130.494 9.38867C128.156 9.38867 126.351 10.4633 125.193 12.5167L126.936 13.4989C127.747 12.0601 128.894 11.3887 130.494 11.3887V9.38867ZM125.064 13.0078V22.0957H127.064V13.0078H125.064ZM125.192 22.5848C125.752 23.5833 126.486 24.3744 127.407 24.9109C128.327 25.4472 129.38 25.6973 130.529 25.6973V23.6973C129.675 23.6973 128.981 23.5137 128.414 23.1828C127.846 22.8522 127.349 22.3425 126.937 21.6066L125.192 22.5848ZM130.529 25.6973C132.398 25.6973 133.935 24.9373 135.041 23.4479L133.436 22.2552C132.714 23.2267 131.778 23.6973 130.529 23.6973V25.6973ZM135.04 23.4491C136.15 21.9605 136.627 19.8698 136.627 17.332H134.627C134.627 19.6692 134.179 21.2582 133.436 22.254L135.04 23.4491ZM146.561 27V28H147.561V27H146.561ZM143.309 27H142.309V28H143.309V27ZM143.309 7.98047V6.98047H142.309V7.98047H143.309ZM146.561 7.98047H147.561V6.98047H146.561V7.98047ZM143.52 1.59961L142.777 0.929323L142.771 0.936022L142.765 0.942829L143.52 1.59961ZM143.52 4.25391L142.776 4.92287L142.782 4.9296L142.788 4.93622L143.52 4.25391ZM146.561 26H143.309V28H146.561V26ZM144.309 27V7.98047H142.309V27H144.309ZM143.309 8.98047H146.561V6.98047H143.309V8.98047ZM145.561 7.98047V27H147.561V7.98047H145.561ZM144.045 2.93555C144.045 2.62501 144.131 2.41986 144.274 2.25639L142.765 0.942829C142.275 1.50592 142.045 2.19139 142.045 2.93555H144.045ZM144.262 2.2699C144.348 2.17393 144.523 2.05469 144.961 2.05469V0.0546875C144.133 0.0546875 143.347 0.298722 142.777 0.929323L144.262 2.2699ZM144.961 2.05469C145.399 2.05469 145.574 2.17393 145.66 2.2699L147.144 0.929323C146.575 0.298722 145.789 0.0546875 144.961 0.0546875V2.05469ZM145.66 2.2699C145.809 2.43451 145.895 2.63504 145.895 2.93555H147.895C147.895 2.18137 147.652 1.49128 147.144 0.929323L145.66 2.2699ZM145.895 2.93555C145.895 3.23622 145.809 3.42378 145.671 3.57159L147.133 4.93622C147.652 4.38091 147.895 3.68956 147.895 2.93555H145.895ZM145.671 3.57159C145.587 3.66191 145.408 3.78125 144.961 3.78125V5.78125C145.779 5.78125 146.561 5.54902 147.133 4.93622L145.671 3.57159ZM144.961 3.78125C144.513 3.78125 144.335 3.66191 144.251 3.57159L142.788 4.93622C143.36 5.54902 144.143 5.78125 144.961 5.78125V3.78125ZM144.263 3.58494C144.131 3.43854 144.045 3.24644 144.045 2.93555H142.045C142.045 3.67935 142.275 4.36615 142.776 4.92287L144.263 3.58494ZM153.381 24.8203L152.656 25.5097L152.659 25.5122L153.381 24.8203ZM152.027 12.375L151.129 11.9363L151.127 11.9393L152.027 12.375ZM155.051 8.89453L155.593 9.73472L155.595 9.73349L155.051 8.89453ZM167.092 18.4219V19.4219H168.092V18.4219H167.092ZM154.207 18.4219V17.4219H153.182L153.207 18.4469L154.207 18.4219ZM155.842 22.9746L155.098 23.6432L155.105 23.651L155.842 22.9746ZM164.859 22.1309L165.474 21.3419L164.682 20.7251L164.068 21.5194L164.859 22.1309ZM166.846 23.6777L167.684 24.2231L168.185 23.4532L167.46 22.8888L166.846 23.6777ZM155.965 11.7422L156.694 12.4264L156.698 12.422L155.965 11.7422ZM154.312 15.75L153.32 15.6285L153.183 16.75H154.312V15.75ZM163.84 15.75V16.75H164.84V15.75H163.84ZM163.84 15.5039H164.84V15.4756L164.838 15.4473L163.84 15.5039ZM162.504 11.6719L161.75 12.329L161.754 12.3338L162.504 11.6719ZM159.674 26.3516C157.337 26.3516 155.511 25.5978 154.103 24.1284L152.659 25.5122C154.485 27.4179 156.854 28.3516 159.674 28.3516V26.3516ZM154.105 24.1309C152.701 22.6551 151.955 20.6537 151.955 18.0176H149.955C149.955 21.0533 150.827 23.5871 152.656 25.5097L154.105 24.1309ZM151.955 18.0176V17.4199H149.955V18.0176H151.955ZM151.955 17.4199C151.955 15.6615 152.288 14.1324 152.927 12.8107L151.127 11.9393C150.337 13.5707 149.955 15.4049 149.955 17.4199H151.955ZM152.926 12.8137C153.579 11.4757 154.469 10.4601 155.593 9.73472L154.508 8.05435C153.054 8.99307 151.929 10.2977 151.129 11.9363L152.926 12.8137ZM155.595 9.73349C156.738 8.992 157.956 8.62891 159.27 8.62891V6.62891C157.559 6.62891 155.965 7.10956 154.507 8.05557L155.595 9.73349ZM159.27 8.62891C161.5 8.62891 163.121 9.35066 164.27 10.7162L165.8 9.4283C164.207 7.53606 161.984 6.62891 159.27 6.62891V8.62891ZM164.27 10.7162C165.436 12.1016 166.092 14.1702 166.092 17.0684H168.092C168.092 13.8962 167.376 11.3008 165.8 9.4283L164.27 10.7162ZM166.092 17.0684V18.4219H168.092V17.0684H166.092ZM167.092 17.4219H154.207V19.4219H167.092V17.4219ZM153.207 18.4469C153.259 20.5097 153.865 22.2717 155.098 23.6432L156.585 22.3061C155.732 21.3572 155.249 20.0841 155.207 18.3969L153.207 18.4469ZM155.105 23.651C156.357 25.0142 157.964 25.6973 159.85 25.6973V23.6973C158.501 23.6973 157.436 23.2319 156.578 22.2982L155.105 23.651ZM159.85 25.6973C161.134 25.6973 162.291 25.4347 163.275 24.8561L162.261 23.1322C161.65 23.4911 160.863 23.6973 159.85 23.6973V25.6973ZM163.275 24.8561C164.188 24.3191 164.98 23.6107 165.651 22.7423L164.068 21.5194C163.544 22.1979 162.941 22.7317 162.261 23.1322L163.275 24.8561ZM164.245 22.9198L166.231 24.4667L167.46 22.8888L165.474 21.3419L164.245 22.9198ZM166.008 23.1323C164.617 25.2687 162.56 26.3516 159.674 26.3516V28.3516C163.163 28.3516 165.887 26.9852 167.684 24.2231L166.008 23.1323ZM159.27 9.30078C157.679 9.30078 156.312 9.89689 155.231 11.0624L156.698 12.422C157.399 11.6656 158.235 11.3008 159.27 11.3008V9.30078ZM155.236 11.0579C154.158 12.2063 153.548 13.7646 153.32 15.6285L155.305 15.8715C155.499 14.2901 155.99 13.1765 156.694 12.4264L155.236 11.0579ZM154.312 16.75H163.84V14.75H154.312V16.75ZM164.84 15.75V15.5039H162.84V15.75H164.84ZM164.838 15.4473C164.736 13.6539 164.246 12.1336 163.253 11.0099L161.754 12.3338C162.356 13.0149 162.756 14.0492 162.841 15.5606L164.838 15.4473ZM163.258 11.0147C162.247 9.85502 160.879 9.30078 159.27 9.30078V11.3008C160.379 11.3008 161.167 11.6606 161.75 12.329L163.258 11.0147ZM180.943 19.916L180.343 20.716L180.351 20.722L180.359 20.7278L180.943 19.916ZM177.48 18.6504L177.271 19.6282L177.272 19.6285L177.48 18.6504ZM173.561 17.3848L173.105 18.2748L173.109 18.277L173.561 17.3848ZM171.416 15.627L170.586 16.185L170.593 16.1947L171.416 15.627ZM172.699 9.24609L172.068 8.4706L172.064 8.47337L172.699 9.24609ZM183 9.29883L182.36 10.0671L182.363 10.0698L183 9.29883ZM185.021 13.5703V14.5703H186.021V13.5703H185.021ZM181.752 13.5703H180.752V14.5703H181.752V13.5703ZM180.609 11.2676L179.958 12.026L179.963 12.031L180.609 11.2676ZM178.271 16.0137L178.052 16.9894L178.054 16.9897L178.271 16.0137ZM184.459 19.1426L183.629 19.7004L183.634 19.7083L183.64 19.716L184.459 19.1426ZM183.158 25.8223L183.758 26.6223L183.763 26.619L183.158 25.8223ZM171.064 24.293L170.235 24.8523L170.243 24.8637L171.064 24.293ZM170.08 21.1465V20.1465H169.08V21.1465H170.08ZM173.332 21.1465L174.331 21.0928L174.28 20.1465H173.332V21.1465ZM174.633 23.748L174.01 24.53L174.016 24.535L174.022 24.5398L174.633 23.748ZM180.82 23.959L181.375 24.791L181.378 24.789L180.82 23.959ZM182.945 21.9551C182.945 20.7801 182.477 19.7871 181.527 19.1042L180.359 20.7278C180.746 21.0059 180.945 21.3722 180.945 21.9551H182.945ZM181.543 19.116C180.702 18.4852 179.364 18.0287 177.689 17.6723L177.272 19.6285C178.902 19.9752 179.872 20.3625 180.343 20.716L181.543 19.116ZM177.69 17.6726C176.093 17.3305 174.879 16.931 174.012 16.4925L173.109 18.277C174.188 18.8229 175.586 19.2672 177.271 19.6282L177.69 17.6726ZM174.016 16.4947C173.159 16.0555 172.59 15.5673 172.239 15.0592L170.593 16.1947C171.18 17.046 172.04 17.7297 173.105 18.2748L174.016 16.4947ZM172.246 15.069C171.915 14.5772 171.73 13.9695 171.73 13.2012H169.73C169.73 14.3078 170.003 15.3173 170.586 16.185L172.246 15.069ZM171.73 13.2012C171.73 11.9711 172.229 10.9264 173.334 10.0188L172.064 8.47337C170.544 9.72203 169.73 11.314 169.73 13.2012H171.73ZM173.331 10.0216C174.442 9.11635 175.893 8.62891 177.762 8.62891V6.62891C175.529 6.62891 173.604 7.21959 172.068 8.47061L173.331 10.0216ZM177.762 8.62891C179.742 8.62891 181.244 9.13683 182.36 10.067L183.64 8.53061C182.085 7.23427 180.094 6.62891 177.762 6.62891V8.62891ZM182.363 10.0698C183.483 10.9948 184.021 12.1369 184.021 13.5703H186.021C186.021 11.5349 185.212 9.82938 183.637 8.52787L182.363 10.0698ZM185.021 12.5703H181.752V14.5703H185.021V12.5703ZM182.752 13.5703C182.752 12.348 182.211 11.313 181.255 10.5042L179.963 12.031C180.531 12.5112 180.752 13.0114 180.752 13.5703H182.752ZM181.261 10.5092C180.301 9.68408 179.109 9.30078 177.762 9.30078V11.3008C178.712 11.3008 179.418 11.562 179.958 12.026L181.261 10.5092ZM177.762 9.30078C176.444 9.30078 175.275 9.58688 174.373 10.2826L175.595 11.8658C176.03 11.5303 176.712 11.3008 177.762 11.3008V9.30078ZM174.373 10.2826C173.464 10.9845 172.982 11.9487 172.982 13.0957H174.982C174.982 12.5787 175.169 12.1952 175.595 11.8658L174.373 10.2826ZM172.982 13.0957C172.982 14.1953 173.445 15.1167 174.374 15.7128L175.454 14.0294C175.141 13.8286 174.982 13.5664 174.982 13.0957H172.982ZM174.374 15.7128C175.156 16.2142 176.428 16.6244 178.052 16.9894L178.491 15.038C176.881 14.6764 175.915 14.3248 175.454 14.0294L174.374 15.7128ZM178.054 16.9897C179.637 17.3429 180.87 17.7543 181.779 18.2089L182.674 16.42C181.567 15.8668 180.163 15.411 178.489 15.0377L178.054 16.9897ZM181.779 18.2089C182.679 18.6587 183.27 19.1665 183.629 19.7004L185.289 18.5847C184.687 17.689 183.79 16.9781 182.674 16.42L181.779 18.2089ZM183.64 19.716C183.994 20.2214 184.197 20.8727 184.197 21.7266H186.197C186.197 20.5413 185.909 19.47 185.278 18.5691L183.64 19.716ZM184.197 21.7266C184.197 23.1114 183.665 24.1825 182.554 25.0256L183.763 26.619C185.37 25.3996 186.197 23.7401 186.197 21.7266H184.197ZM182.558 25.0223C181.415 25.88 179.879 26.3516 177.867 26.3516V28.3516C180.191 28.3516 182.183 27.8036 183.758 26.6223L182.558 25.0223ZM177.867 26.3516C176.462 26.3516 175.261 26.1033 174.242 25.6345L173.406 27.4515C174.731 28.0607 176.225 28.3516 177.867 28.3516V26.3516ZM174.242 25.6345C173.215 25.1622 172.441 24.5219 171.886 23.7222L170.243 24.8637C171.023 25.9859 172.089 26.8457 173.406 27.4515L174.242 25.6345ZM171.893 23.7337C171.344 22.9187 171.08 22.0633 171.08 21.1465H169.08C169.08 22.4797 169.473 23.7219 170.235 24.8523L171.893 23.7337ZM170.08 22.1465H173.332V20.1465H170.08V22.1465ZM172.333 21.2002C172.406 22.5573 172.964 23.6966 174.01 24.53L175.256 22.9661C174.685 22.5105 174.375 21.9154 174.331 21.0928L172.333 21.2002ZM174.022 24.5398C175.062 25.3423 176.375 25.6973 177.867 25.6973V23.6973C176.688 23.6973 175.844 23.4194 175.244 22.9563L174.022 24.5398ZM177.867 25.6973C179.221 25.6973 180.42 25.4275 181.375 24.791L180.266 23.1269C179.744 23.4748 178.974 23.6973 177.867 23.6973V25.6973ZM181.378 24.789C182.376 24.1183 182.945 23.1527 182.945 21.9551H180.945C180.945 22.4215 180.764 22.7919 180.263 23.1289L181.378 24.789Z" fill="black"/>
</g>
<defs>
<filter id="filter0_d" x="0.970703" y="0.0546875" width="189.227" height="43.627" filterUnits="userSpaceOnUse" color-interpolation-filters="sRGB">
<feFlood flood-opacity="0" result="BackgroundImageFix"/>
<feColorMatrix in="SourceAlpha" type="matrix" values="0 0 0 0 0 0 0 0 0 0 0 0 0 0 0 0 0 0 127 0"/>
<feOffset dy="4"/>
<feGaussianBlur stdDeviation="2"/>
<feColorMatrix type="matrix" values="0 0 0 0 0 0 0 0 0 0 0 0 0 0 0 0 0 0 0.25 0"/>
<feBlend mode="normal" in2="BackgroundImageFix" result="effect1_dropShadow"/>
<feBlend mode="normal" in="SourceGraphic" in2="effect1_dropShadow" result="shape"/>
</filter>
</defs>
</svg>
